<?xml version="1.0" encoding="utf-8"?>
<!-- Generator: Adobe Illustrator 16.0.0, SVG Export Plug-In . SVG Version: 6.00 Build 0)  -->
<!DOCTYPE svg PUBLIC "-//W3C//DTD SVG 1.1//EN" "http://www.w3.org/Graphics/SVG/1.1/DTD/svg11.dtd" [
	<!ENTITY ns_flows "http://ns.adobe.com/Flows/1.0/">
	<!ENTITY ns_extend "http://ns.adobe.com/Extensibility/1.0/">
	<!ENTITY ns_ai "http://ns.adobe.com/AdobeIllustrator/10.0/">
	<!ENTITY ns_graphs "http://ns.adobe.com/Graphs/1.0/">
]>
<svg version="1.1" id="Layer_1" xmlns:x="&ns_extend;" xmlns:i="&ns_ai;" xmlns:graph="&ns_graphs;"
	 xmlns="http://www.w3.org/2000/svg" xmlns:xlink="http://www.w3.org/1999/xlink" xmlns:a="http://ns.adobe.com/AdobeSVGViewerExtensions/3.0/"
	 x="0px" y="0px" width="15px" height="30px" viewBox="0 0 15 30" enable-background="new 0 0 15 30" xml:space="preserve">
<g id="Девайс_29_">
	<g>
		<g>
			<g>
				<g>
					<path fill="#FFFFFF" d="M12.788,30H2.215C0.993,30,0,28.998,0,27.768V2.23C0,1.022,0.987,0,2.152,0h10.573
						C14,0,15,0.979,15,2.23v25.538C15,28.998,14.01,30,12.788,30z M2.152,0.733c-0.778,0-1.438,0.685-1.438,1.497v25.538
						c0,0.826,0.674,1.5,1.5,1.5h10.573c0.826,0,1.497-0.674,1.497-1.5V2.23c0-0.841-0.683-1.497-1.56-1.497H2.152z"/>
					<path fill="#FFFFFF" d="M13.538,23.024H1.526V4.975h12.012V23.024z M2.241,22.295h10.582V5.707H2.241V22.295z"/>
					<path fill="#FFFFFF" d="M6.436,3.598h2.192c0.196,0,0.352-0.158,0.352-0.354c0-0.196-0.155-0.354-0.352-0.354H6.436
						c-0.192,0-0.354,0.158-0.354,0.354C6.082,3.44,6.243,3.598,6.436,3.598z"/>
					<ellipse fill="#FFFFFF" cx="7.546" cy="26.01" rx="1.443" ry="1.453"/>
				</g>
			</g>
		</g>
	</g>
</g>
</svg>
