<?xml version="1.0" encoding="utf-8"?>
<!-- Generator: Adobe Illustrator 16.0.0, SVG Export Plug-In . SVG Version: 6.00 Build 0)  -->
<!DOCTYPE svg PUBLIC "-//W3C//DTD SVG 1.1//EN" "http://www.w3.org/Graphics/SVG/1.1/DTD/svg11.dtd" [
	<!ENTITY ns_flows "http://ns.adobe.com/Flows/1.0/">
	<!ENTITY ns_extend "http://ns.adobe.com/Extensibility/1.0/">
	<!ENTITY ns_ai "http://ns.adobe.com/AdobeIllustrator/10.0/">
	<!ENTITY ns_graphs "http://ns.adobe.com/Graphs/1.0/">
]>
<svg version="1.1" id="Layer_1" xmlns:x="&ns_extend;" xmlns:i="&ns_ai;" xmlns:graph="&ns_graphs;"
	 xmlns="http://www.w3.org/2000/svg" xmlns:xlink="http://www.w3.org/1999/xlink" xmlns:a="http://ns.adobe.com/AdobeSVGViewerExtensions/3.0/"
	 x="0px" y="0px" width="22.5px" height="22.5px" viewBox="0 0 22.5 22.5" enable-background="new 0 0 22.5 22.5"
	 xml:space="preserve">
<g id="Смайлы_23_">
	<g>
		<g>
			<g>
				<g>
					<path fill="#FFFFFF" d="M11.25,22.5c-3.011,0-5.836-1.169-7.959-3.292C1.169,17.086,0,14.26,0,11.25
						c0-3.01,1.169-5.838,3.291-7.96C5.414,1.167,8.239,0,11.25,0c3.01-0.002,5.836,1.167,7.958,3.291
						C21.331,5.414,22.5,8.24,22.5,11.25c0,3.01-1.169,5.836-3.292,7.958l0,0l0,0C17.086,21.331,14.26,22.5,11.25,22.5L11.25,22.5z
						 M11.25,0.549c-2.863,0-5.553,1.11-7.569,3.13c-2.02,2.018-3.132,4.708-3.132,7.571c0,2.863,1.112,5.552,3.132,7.571
						c2.017,2.018,4.706,3.13,7.569,3.13l0,0c2.863,0,5.552-1.112,7.571-3.131l0,0c2.018-2.02,3.129-4.707,3.129-7.57
						c0-2.862-1.111-5.553-3.129-7.571C16.802,1.66,14.113,0.549,11.25,0.549z M11.265,17.805c-2.632,0-4.948-1.479-5.899-3.769
						l0.506-0.209c0.868,2.084,2.983,3.428,5.394,3.428c2.357,0,4.461-1.337,5.359-3.412l0.503,0.218
						C16.144,16.333,13.843,17.805,11.265,17.805z M5.609,8.976L5.179,8.635l1.883-2.387c0.174-0.225,0.561-0.229,0.743-0.005
						l1.885,2.391l-0.431,0.34L7.436,6.662L5.609,8.976z M13.469,8.976l-0.431-0.338l1.884-2.389
						c0.182-0.226,0.558-0.229,0.74-0.008l1.89,2.392l-0.433,0.34L15.296,6.66L13.469,8.976z"/>
				</g>
			</g>
		</g>
	</g>
</g>
</svg>
