<?xml version="1.0" encoding="utf-8"?>
<!-- Generator: Adobe Illustrator 16.0.0, SVG Export Plug-In . SVG Version: 6.00 Build 0)  -->
<!DOCTYPE svg PUBLIC "-//W3C//DTD SVG 1.1//EN" "http://www.w3.org/Graphics/SVG/1.1/DTD/svg11.dtd" [
	<!ENTITY ns_flows "http://ns.adobe.com/Flows/1.0/">
	<!ENTITY ns_extend "http://ns.adobe.com/Extensibility/1.0/">
	<!ENTITY ns_ai "http://ns.adobe.com/AdobeIllustrator/10.0/">
	<!ENTITY ns_graphs "http://ns.adobe.com/Graphs/1.0/">
]>
<svg version="1.1" id="Layer_1" xmlns:x="&ns_extend;" xmlns:i="&ns_ai;" xmlns:graph="&ns_graphs;"
	 xmlns="http://www.w3.org/2000/svg" xmlns:xlink="http://www.w3.org/1999/xlink" xmlns:a="http://ns.adobe.com/AdobeSVGViewerExtensions/3.0/"
	 x="0px" y="0px" width="15px" height="30px" viewBox="0 0 15 30" enable-background="new 0 0 15 30" xml:space="preserve">
<g id="Чехол_51_">
	<g>
		<g>
			<g>
				<g>
					<g>
						<path fill="#405E88" d="M12.808,30H2.194C0.984,30,0,29.035,0,27.847V2.156C0,0.97,0.984,0,2.194,0h10.613
							C14.019,0,15,0.97,15,2.156v25.691C15,29.035,14.019,30,12.808,30z M2.194,0.733c-0.815,0-1.479,0.638-1.479,1.423v25.691
							c0,0.784,0.664,1.423,1.479,1.423h10.613c0.814,0,1.478-0.639,1.478-1.423V2.156c0-0.786-0.663-1.423-1.478-1.423H2.194z"/>
					</g>
					<g>
						<path fill="#405E88" d="M5.106,4.178H3.041c-0.542,0-0.985-0.431-0.985-0.961c0-0.528,0.443-0.958,0.985-0.958h2.065
							c0.544,0,0.987,0.43,0.987,0.958C6.094,3.747,5.65,4.178,5.106,4.178z"/>
					</g>
				</g>
			</g>
		</g>
	</g>
</g>
</svg>
