<?xml version="1.0" encoding="utf-8"?>
<!-- Generator: Adobe Illustrator 16.0.0, SVG Export Plug-In . SVG Version: 6.00 Build 0)  -->
<!DOCTYPE svg PUBLIC "-//W3C//DTD SVG 1.1//EN" "http://www.w3.org/Graphics/SVG/1.1/DTD/svg11.dtd" [
	<!ENTITY ns_flows "http://ns.adobe.com/Flows/1.0/">
	<!ENTITY ns_extend "http://ns.adobe.com/Extensibility/1.0/">
	<!ENTITY ns_ai "http://ns.adobe.com/AdobeIllustrator/10.0/">
	<!ENTITY ns_graphs "http://ns.adobe.com/Graphs/1.0/">
]>
<svg version="1.1" id="Layer_1" xmlns:x="&ns_extend;" xmlns:i="&ns_ai;" xmlns:graph="&ns_graphs;"
	 xmlns="http://www.w3.org/2000/svg" xmlns:xlink="http://www.w3.org/1999/xlink" xmlns:a="http://ns.adobe.com/AdobeSVGViewerExtensions/3.0/"
	 x="0px" y="0px" width="22.5px" height="22.5px" viewBox="0 0 22.5 22.5" enable-background="new 0 0 22.5 22.5"
	 xml:space="preserve">
<g id="Чехол_52_">
	<g>
		<g>
			<g>
				<g>
					<g>
						<path fill="#405E88" d="M1.333,16.528l-0.388-0.94c-0.311-0.754-0.541-1.545-0.682-2.352c0.104-4.382,1.927-5.53,3.691-6.637
							c1.693-1.064,3.293-2.068,3.199-5.624L7.15,0.778l0.18-0.066c0.972-0.369,2.009-0.6,3.08-0.681l0.273-0.022l0.015,0.281
							c0.243,4.85-1.867,6.176-4.101,7.58c-2.14,1.346-4.565,2.872-5.142,7.643L1.333,16.528z M7.692,1.16
							c0.033,3.713-1.819,4.878-3.458,5.907c-1.793,1.126-3.342,2.101-3.441,6.13c0.073,0.393,0.172,0.797,0.297,1.204
							C1.9,10.18,4.238,8.71,6.316,7.402c2.141-1.344,3.995-2.509,3.858-6.8C9.315,0.69,8.483,0.876,7.692,1.16z"/>
						<path fill="#405E88" d="M0,10.27l0.406-1.688c0.78-3.247,2.942-5.96,5.931-7.441l0.389-0.193L6.722,1.39
							C6.688,4.366,5.313,5.232,3.72,6.233C2.702,6.873,1.652,7.537,0.893,8.792L0,10.27z M6.167,1.844
							C3.957,3.057,2.265,4.999,1.36,7.328C2.021,6.66,2.762,6.194,3.44,5.765C4.869,4.869,6.015,4.146,6.167,1.844z"/>
						<path fill="#405E88" d="M4.094,19.905l-0.404-0.376c-0.713-0.66-1.341-1.424-1.874-2.265l-0.044-0.07l0.002-0.088
							c0.191-5.803,2.667-7.363,5.06-8.871c2.234-1.404,4.545-2.857,4.301-7.943L11.12,0l0.286,0.005
							c0.628,0.01,1.254,0.072,1.861,0.188l0.215,0.039l0.005,0.224c0.129,6.496-2.174,8.343-4.614,10.3
							c-2.143,1.72-4.359,3.5-4.737,8.591L4.094,19.905z M2.312,17.038c0.394,0.616,0.844,1.182,1.341,1.696
							c0.513-4.897,2.739-6.682,4.894-8.411c2.302-1.845,4.478-3.591,4.409-9.628c-0.417-0.071-0.846-0.115-1.274-0.133
							c0.151,5.175-2.354,6.749-4.568,8.14C4.852,10.127,2.514,11.599,2.312,17.038z"/>
						<path fill="#405E88" d="M11.281,22.5l-0.258-0.005c-0.979-0.015-1.948-0.164-2.88-0.435l-0.201-0.057l0.005-0.215
							c0.163-5.677,2.332-7.432,4.628-9.291c2.333-1.891,4.746-3.849,4.776-10.114l0.003-0.531l0.419,0.31
							c0.767,0.562,1.46,1.224,2.059,1.96l0.062,0.075l0.002,0.095c0.112,6.006-1.996,7.715-4.226,9.525
							c-2.03,1.643-4.129,3.341-4.377,8.419L11.281,22.5z M8.49,21.59c0.742,0.2,1.508,0.319,2.285,0.35
							c0.321-5.118,2.478-6.864,4.563-8.554c2.112-1.715,4.107-3.332,4.023-8.985c-0.446-0.539-0.945-1.031-1.485-1.473
							c-0.165,6.102-2.608,8.084-4.97,10C10.738,14.682,8.691,16.339,8.49,21.59z"/>
						<path fill="#405E88" d="M15.794,21.513l0.021-0.466c0.167-3.523,1.642-4.434,3.204-5.394c0.976-0.603,1.984-1.222,2.652-2.527
							l0.828-1.624l-0.33,1.802c-0.631,3.438-2.86,6.431-5.97,8.003L15.794,21.513z M21.284,14.612
							c-0.621,0.668-1.335,1.107-1.99,1.511c-1.479,0.91-2.66,1.64-2.911,4.47C18.699,19.284,20.454,17.129,21.284,14.612z"/>
						<path fill="#405E88" d="M11.718,22.489l0.016-0.309c0.257-4.822,2.267-6.451,4.212-8.031c2.037-1.648,4.145-3.354,4.37-8.484
							l0.04-0.906l0.455,0.779c0.543,0.919,0.944,1.906,1.204,2.933l0.087,0.342h-0.118c0.117,4.435-1.567,5.472-3.197,6.473
							c-1.651,1.015-3.363,2.07-3.421,6.22l-0.002,0.187l-0.172,0.066c-1.02,0.396-2.087,0.633-3.175,0.709L11.718,22.489z
							 M20.786,6.634c-0.441,4.653-2.507,6.324-4.509,7.945c-1.892,1.536-3.681,2.986-3.99,7.316
							c0.868-0.088,1.723-0.282,2.549-0.584c0.114-4.305,2.088-5.52,3.676-6.498c1.67-1.026,3.113-1.911,2.927-6.264L21.43,8.356
							C21.268,7.765,21.05,7.19,20.786,6.634z"/>
						<path fill="#405E88" d="M7.513,21.863l-0.349-0.138c-0.896-0.354-1.741-0.827-2.517-1.402l-0.116-0.085l0.003-0.148
							c0.205-5.462,2.348-7.18,4.613-8.996C11.535,9.178,14,7.202,13.931,0.699l-0.004-0.365L14.27,0.43
							c0.872,0.251,1.713,0.61,2.505,1.073l0.132,0.078l0.003,0.155c0.137,6.577-2.17,8.449-4.613,10.429
							c-2.229,1.806-4.533,3.675-4.768,9.315L7.513,21.863z M5.076,19.964c0.606,0.437,1.256,0.806,1.938,1.105
							c0.333-5.592,2.681-7.494,4.95-9.337c2.316-1.878,4.505-3.653,4.414-9.827c-0.61-0.346-1.253-0.625-1.911-0.843
							c-0.024,6.483-2.546,8.502-4.985,10.457C7.332,13.245,5.305,14.871,5.076,19.964z"/>
					</g>
				</g>
			</g>
		</g>
	</g>
</g>
</svg>
