<?xml version="1.0" encoding="utf-8"?>
<!-- Generator: Adobe Illustrator 16.0.0, SVG Export Plug-In . SVG Version: 6.00 Build 0)  -->
<!DOCTYPE svg PUBLIC "-//W3C//DTD SVG 1.1//EN" "http://www.w3.org/Graphics/SVG/1.1/DTD/svg11.dtd" [
	<!ENTITY ns_flows "http://ns.adobe.com/Flows/1.0/">
	<!ENTITY ns_extend "http://ns.adobe.com/Extensibility/1.0/">
	<!ENTITY ns_ai "http://ns.adobe.com/AdobeIllustrator/10.0/">
	<!ENTITY ns_graphs "http://ns.adobe.com/Graphs/1.0/">
]>
<svg version="1.1" id="Layer_1" xmlns:x="&ns_extend;" xmlns:i="&ns_ai;" xmlns:graph="&ns_graphs;"
	 xmlns="http://www.w3.org/2000/svg" xmlns:xlink="http://www.w3.org/1999/xlink" xmlns:a="http://ns.adobe.com/AdobeSVGViewerExtensions/3.0/"
	 x="0px" y="0px" width="23.399px" height="26px" viewBox="0 0 23.399 26" enable-background="new 0 0 23.399 26"
	 xml:space="preserve">
<g id="Текст_28_">
	<g>
		<g>
			<g>
				<g>
					<path fill="#405E88" d="M15.796,26H7.604v-1.574h1.553c0.263,0,0.473-0.092,0.627-0.272c0.349-0.383,0.368-1.076,0.361-1.757
						V2.666c0-0.088-0.059-0.152-0.14-0.152H2.379c-0.08,0-0.141,0.063-0.141,0.152v2.664H0.799L0,0h23.399l-0.797,5.329h-1.439
						V2.666c0-0.088-0.061-0.152-0.14-0.152h-7.628c-0.079,0-0.14,0.063-0.14,0.152l0.025,20.106
						c0.076,0.89,0.206,1.654,0.961,1.654h1.554V26z M8.172,25.365h7.059V25.06h-0.988c-1.337,0-1.469-1.534-1.523-2.188
						l-0.031-0.379V2.666c0-0.441,0.31-0.787,0.708-0.787h7.628c0.394,0,0.706,0.346,0.706,0.787v2.032h0.391l0.611-4.062H0.672
						l0.61,4.062h0.389V2.666c0-0.441,0.312-0.787,0.708-0.787h7.627c0.396,0,0.706,0.346,0.706,0.787v19.728
						c0.011,0.812-0.023,1.651-0.523,2.208c-0.259,0.3-0.616,0.459-1.031,0.459H8.172V25.365z"/>
				</g>
			</g>
		</g>
	</g>
</g>
</svg>
