<?xml version="1.0" encoding="utf-8"?>
<!-- Generator: Adobe Illustrator 16.0.0, SVG Export Plug-In . SVG Version: 6.00 Build 0)  -->
<!DOCTYPE svg PUBLIC "-//W3C//DTD SVG 1.1//EN" "http://www.w3.org/Graphics/SVG/1.1/DTD/svg11.dtd" [
	<!ENTITY ns_flows "http://ns.adobe.com/Flows/1.0/">
	<!ENTITY ns_extend "http://ns.adobe.com/Extensibility/1.0/">
	<!ENTITY ns_ai "http://ns.adobe.com/AdobeIllustrator/10.0/">
	<!ENTITY ns_graphs "http://ns.adobe.com/Graphs/1.0/">
]>
<svg version="1.1" id="Layer_1" xmlns:x="&ns_extend;" xmlns:i="&ns_ai;" xmlns:graph="&ns_graphs;"
	 xmlns="http://www.w3.org/2000/svg" xmlns:xlink="http://www.w3.org/1999/xlink" xmlns:a="http://ns.adobe.com/AdobeSVGViewerExtensions/3.0/"
	 x="0px" y="0px" width="26px" height="26px" viewBox="0 0 26 26" enable-background="new 0 0 26 26" xml:space="preserve">
<g id="Цвет_28_">
	<g>
		<g>
			<g>
				<g>
					<g>
						<path fill="#405E88" d="M13,26C5.832,26,0,20.167,0,13C0,5.831,5.832,0,13,0c7.167,0,13,5.198,13,11.586
							c0,4.132-3.235,7.367-7.364,7.367h-2.531c-0.957,0-1.797,0.843-1.797,1.803c0,0.458,0.237,0.822,0.492,1.208
							c0.435,0.435,0.629,0.922,0.629,1.606C15.429,24.866,14.295,26,13,26z M13,0.633C6.179,0.633,0.632,6.182,0.632,13
							S6.179,25.367,13,25.367c0.957,0,1.795-0.84,1.795-1.796c0-0.52-0.127-0.841-0.473-1.188l-0.053-0.072
							c-0.282-0.426-0.597-0.908-0.597-1.554c0-1.297,1.135-2.438,2.432-2.438h2.531c3.773,0,6.729-2.955,6.729-6.732
							C25.364,5.547,19.819,0.633,13,0.633z M20.754,13.317c-1.298,0-2.435-1.134-2.435-2.427c0-1.297,1.137-2.434,2.435-2.434
							c1.295,0,2.43,1.136,2.43,2.434C23.184,12.183,22.049,13.317,20.754,13.317z M20.754,9.091c-0.961,0-1.801,0.839-1.801,1.798
							c0,0.956,0.84,1.793,1.801,1.793c0.957,0,1.798-0.837,1.798-1.793C22.552,9.931,21.711,9.091,20.754,9.091z M5.253,13.317
							c-1.298,0-2.436-1.134-2.436-2.427c0-1.297,1.138-2.434,2.436-2.434c1.292,0,2.428,1.136,2.428,2.434
							C7.681,12.183,6.545,13.317,5.253,13.317z M5.253,9.091c-0.961,0-1.8,0.839-1.8,1.798c0,0.956,0.839,1.793,1.8,1.793
							c0.955,0,1.792-0.837,1.792-1.793C7.045,9.931,6.208,9.091,5.253,9.091z M16.523,7.68c-1.295,0-2.432-1.136-2.432-2.43
							c0-1.293,1.137-2.429,2.432-2.429c1.292,0,2.43,1.136,2.43,2.429C18.953,6.544,17.815,7.68,16.523,7.68z M16.523,3.457
							c-0.957,0-1.797,0.837-1.797,1.793c0,0.956,0.84,1.796,1.797,1.796c0.955,0,1.796-0.84,1.796-1.796
							C18.319,4.294,17.479,3.457,16.523,3.457z M9.475,7.68c-1.294,0-2.43-1.136-2.43-2.43c0-1.293,1.136-2.429,2.43-2.429
							c1.296,0,2.43,1.136,2.43,2.429C11.904,6.544,10.771,7.68,9.475,7.68z M9.475,3.457c-0.956,0-1.794,0.837-1.794,1.793
							c0,0.956,0.838,1.796,1.794,1.796c0.958,0,1.796-0.84,1.796-1.796C11.271,4.294,10.433,3.457,9.475,3.457z"/>
					</g>
				</g>
			</g>
		</g>
	</g>
</g>
</svg>
